# xmcd
#
# Track frame offsets:
#	187
#	11050
#	23902
#	39332
#	52525
#	66170
#	84745
#	99307
#	114505
#	129380
#
# Disc length: 1919 seconds
#
# Revision: 4
# Processed by: cddbd v1.5.1PL2 Copyright (c) Steve Scherf et al.
# Submitted via: dBpowerAMP V4.0
#
DISCID=72077d0a
DTITLE=Tracy Byrd - No Ordinary Man
DYEAR=1994
DGENRE=Country
TTITLE0=The First Step
TTITLE1=Lifestyles of the Not So Rich and Famous
TTITLE2=No Ordinary Man
TTITLE3=Anybody Else's Heart but Mine
TTITLE4=Watermelon Crawl
TTITLE5=The Keeper of the Stars
TTITLE6=You Never Know Just How Good You've Got It
TTITLE7=Redneck Roses
TTITLE8=Right About Now
TTITLE9=Pink Flamingos
EXTD=
EXTT0=
EXTT1=
EXTT2=
EXTT3=
EXTT4=
EXTT5=
EXTT6=
EXTT7=
EXTT8=
EXTT9=
PLAYORDER=
